<?xml version="1.0" standalone="no"?>
<!DOCTYPE svg PUBLIC "-//W3C//DTD SVG 20010904//EN"
 "http://www.w3.org/TR/2001/REC-SVG-20010904/DTD/svg10.dtd">
<svg version="1.0" xmlns="http://www.w3.org/2000/svg"
 width="770.000000pt" height="1080.000000pt" viewBox="0 0 770.000000 1080.000000"
 preserveAspectRatio="xMidYMid meet">
<metadata>
Created by potrace 1.16, written by Peter Selinger 2001-2019
</metadata>
<g transform="translate(0.000000,1080.000000) scale(0.100000,-0.100000)"
fill="#000000" stroke="none">
<path d="M7295 9619 c-150 -8 -193 -11 -570 -49 -110 -10 -297 -24 -415 -30
-236 -11 -274 -14 -498 -40 -84 -9 -157 -21 -163 -27 -20 -20 -30 -144 -38
-468 -5 -181 -11 -337 -15 -346 -4 -9 -34 -29 -68 -45 -109 -52 -223 -210
-262 -365 -38 -146 -42 -245 -16 -418 12 -75 60 -213 85 -241 8 -8 18 -27 24
-43 9 -24 6 -33 -23 -75 -18 -26 -50 -78 -71 -117 -20 -38 -51 -91 -67 -117
-46 -73 -79 -181 -85 -280 l-6 -88 -142 0 c-157 0 -374 -26 -495 -60 -41 -12
-99 -28 -128 -36 -76 -21 -219 -86 -287 -130 -157 -100 -311 -304 -381 -505
-48 -138 -55 -383 -20 -734 17 -177 81 -586 102 -653 35 -111 100 -485 124
-707 14 -131 11 -361 -6 -455 -7 -41 -17 -114 -20 -162 -6 -79 -10 -91 -43
-135 -94 -125 -355 -222 -681 -254 -133 -12 -495 -7 -775 11 -155 10 -403 26
-630 40 -71 4 -278 7 -460 6 -304 -2 -338 -4 -425 -24 -52 -13 -108 -27 -125
-32 -16 -6 -59 -20 -95 -31 -89 -28 -239 -93 -300 -129 -28 -17 -53 -30 -55
-30 -4 0 -114 -72 -202 -132 l-62 -43 -1 -1337 0 -1338 2148 0 2148 0 26 28
c36 39 135 205 158 267 17 45 40 129 40 146 0 11 5 19 10 19 6 0 10 -6 10 -12
0 -9 4 -8 10 2 8 13 10 12 10 -2 0 -10 7 -18 15 -18 8 0 24 -9 36 -21 12 -12
29 -19 39 -16 13 3 17 0 13 -9 -3 -8 -9 -11 -14 -8 -5 3 -6 -8 -3 -24 5 -25
-42 -189 -76 -267 -5 -11 -12 -35 -15 -52 -7 -33 -6 -33 33 -33 l39 0 51 154
c59 175 76 218 85 217 28 -3 36 1 31 14 -4 9 0 15 10 15 9 0 16 6 16 14 0 7 7
19 15 26 8 7 15 20 15 30 0 15 6 17 36 13 l36 -5 -5 44 c-6 52 -31 121 -46
126 -6 2 -11 8 -11 13 0 6 4 8 8 5 4 -2 8 13 8 35 0 22 -3 34 -7 27 -4 -7 -10
5 -14 28 -3 21 -10 56 -16 77 -5 20 -8 41 -5 46 3 5 -3 16 -14 26 -11 10 -20
15 -20 10 0 -4 -7 -1 -17 6 -9 8 -19 13 -22 13 -10 -3 0 20 11 27 16 10 1 40
-17 33 -8 -3 -15 -1 -15 5 0 7 -13 17 -30 22 -31 11 -42 39 -15 39 21 0 19 14
-7 36 l-23 19 19 -22 c18 -22 18 -22 -15 -31 -40 -10 -62 -5 -55 14 11 28 -56
37 -134 19 -20 -4 -22 -3 -10 6 13 9 12 10 -3 5 -10 -3 -24 -6 -30 -6 -7 0 -3
-7 7 -15 25 -19 18 -19 -27 0 -20 8 -44 15 -54 14 -16 0 -15 -1 2 -8 16 -6 10
-9 -26 -15 -50 -7 -100 1 -229 41 -107 32 -133 58 -127 122 3 23 14 56 26 72
11 15 30 52 42 81 19 47 20 63 13 153 -13 170 -12 264 3 269 7 3 13 11 12 18
0 10 -2 10 -6 0 -8 -20 -23 -3 -22 26 0 23 2 24 8 8 7 -19 8 -19 13 2 11 39
36 21 29 -20 0 -5 3 -8 9 -8 5 0 10 9 10 20 0 14 9 21 35 26 32 6 35 9 35 40
0 19 4 34 8 34 4 0 9 13 10 30 1 16 7 42 14 57 6 15 10 34 9 42 -1 7 2 10 7 7
6 -3 13 1 16 10 3 8 2 13 -3 10 -5 -3 -8 5 -7 19 0 14 4 25 9 25 4 0 7 8 7 18
0 15 -2 15 -11 2 -9 -12 -9 -11 -3 5 4 11 7 30 7 43 -1 12 4 22 9 22 6 0 8 17
6 39 -2 22 1 37 5 34 5 -3 6 9 2 26 -4 17 -3 31 2 31 4 0 8 17 8 38 1 20 4 86
7 146 4 59 3 119 -2 132 -7 17 -6 24 3 24 9 0 11 13 9 40 -3 29 0 40 9 40 12
0 11 2 0 9 -9 6 -11 15 -6 27 9 23 18 71 17 102 0 12 4 22 8 22 19 0 25 96 25
375 -1 172 3 303 8 306 5 4 11 24 14 45 4 36 23 74 23 46 0 -10 5 -10 20 -2
25 13 50 1 74 -34 20 -32 21 -164 1 -321 -46 -363 -63 -470 -100 -620 -33
-133 -82 -363 -95 -450 -6 -38 -14 -77 -17 -85 -3 -8 -5 -69 -6 -135 0 -110 3
-132 41 -270 73 -266 76 -328 27 -429 -16 -32 -30 -79 -33 -105 -7 -81 31
-105 227 -147 57 -12 169 -25 207 -24 154 3 452 -55 602 -118 64 -27 69 -32
98 -91 17 -34 44 -111 58 -171 25 -100 27 -120 23 -257 -3 -81 -6 -155 -7
-163 -3 -32 -44 -178 -66 -237 -13 -34 -24 -64 -24 -67 0 -3 20 -6 44 -6 31 0
46 5 50 16 3 9 11 12 18 8 9 -5 9 -3 -1 9 -10 12 -10 21 -3 30 16 19 34 69 22
62 -14 -9 -12 9 2 23 7 7 9 12 5 12 -3 0 1 19 10 43 12 32 17 88 19 237 4 214
-6 270 -72 439 -53 135 -103 168 -346 225 -179 42 -190 44 -318 51 -185 10
-275 17 -285 23 -5 3 -16 7 -25 8 -62 10 -123 22 -153 31 -24 6 -18 46 24 146
40 95 42 138 12 250 -30 109 -31 114 -51 287 -17 139 0 401 38 580 5 25 14 68
19 95 6 28 17 77 25 110 8 33 21 89 30 125 43 182 79 514 80 733 1 133 3 156
15 152 10 -4 9 1 -4 15 -14 15 -15 20 -4 20 11 0 11 2 -1 11 -12 9 -12 10 3 5
10 -3 23 -6 28 -6 5 0 9 -4 9 -10 0 -5 -7 -6 -17 -3 -10 4 -14 2 -10 -4 4 -6
16 -13 27 -16 11 -3 17 -1 14 5 -3 5 2 18 12 29 9 10 12 19 6 19 -6 0 -13 -6
-15 -12 -4 -9 -6 -9 -6 -1 -1 6 10 20 24 31 14 11 25 26 25 34 0 8 3 18 8 22
4 4 7 15 8 24 1 10 2 28 3 41 2 40 12 17 21 -50 25 -176 21 -322 -20 -729 -5
-52 -12 -135 -15 -185 -4 -49 -13 -151 -22 -225 -8 -74 -17 -151 -19 -170 -2
-19 -6 -55 -9 -80 -2 -25 -7 -92 -11 -150 -3 -58 -11 -109 -16 -115 -7 -7 -9
0 -6 21 2 19 0 31 -8 31 -8 0 -9 -10 -2 -36 14 -57 20 -171 8 -171 -5 0 -10 6
-11 13 0 6 -4 2 -9 -10 -5 -11 -7 -41 -6 -65 2 -23 -1 -54 -6 -67 -7 -20 -6
-22 6 -12 8 7 13 25 11 44 -1 18 2 37 7 44 5 7 5 14 -2 18 -5 3 -10 11 -10 18
0 6 7 4 17 -5 15 -15 17 -34 11 -95 0 -10 -6 -22 -12 -26 -7 -6 -4 -7 7 -3 9
3 17 2 18 -2 0 -4 2 -15 4 -24 4 -22 -4 -23 -35 -1 l-25 17 19 -22 c11 -12 26
-22 36 -22 11 0 23 -20 37 -62 12 -35 33 -96 48 -136 25 -68 27 -81 20 -160
-7 -77 -8 -153 -2 -204 0 -9 5 -14 9 -12 4 3 8 1 8 -4 0 -5 11 -15 25 -22 13
-7 23 -16 21 -19 -2 -3 6 -7 17 -8 113 -11 147 -17 147 -25 0 -6 -8 -7 -17 -3
-15 5 -16 4 -5 -7 11 -11 16 -10 28 6 8 11 14 16 14 10 0 -5 58 -9 138 -9 153
0 488 -21 566 -36 111 -20 128 -41 107 -133 -18 -85 -17 -169 10 -667 5 -102
7 -192 4 -201 -3 -8 -1 -27 4 -41 6 -15 7 -27 3 -27 -4 0 -6 -18 -4 -40 l4
-40 386 0 c300 0 383 3 374 12 -7 7 -12 20 -12 29 0 10 -7 24 -15 32 -13 13
-13 16 0 21 19 7 48 -55 31 -66 -7 -5 -4 -8 7 -8 9 0 17 -4 17 -10 0 -5 16
-10 36 -10 31 0 35 3 29 17 -24 56 -34 164 -35 363 -1 290 -38 697 -69 759
-12 23 -19 47 -15 54 4 7 4 9 -1 5 -4 -4 -24 5 -44 21 -20 16 -61 36 -91 45
-65 18 -253 40 -475 56 -88 6 -201 15 -252 20 -50 6 -118 10 -150 10 -33 0
-84 4 -114 10 -30 5 -71 12 -92 14 -21 3 -45 10 -53 17 -12 10 -12 13 3 24 10
7 22 11 27 8 5 -3 86 -7 180 -9 230 -3 655 -31 741 -48 39 -8 102 -17 140 -21
77 -7 71 -6 205 -35 159 -35 240 -66 240 -92 0 -5 4 -7 9 -4 9 6 76 -62 124
-125 16 -21 30 -55 33 -82 6 -43 -10 -183 -36 -322 -23 -122 -29 -238 -18
-354 11 -110 11 -114 19 -121 3 -3 14 -34 23 -70 10 -36 27 -82 37 -103 18
-33 23 -37 59 -37 39 0 40 0 28 27 -7 16 -15 33 -19 38 -13 18 -49 118 -66
185 -24 91 -21 280 7 435 38 215 43 249 42 313 0 59 -4 69 -46 130 -55 80
-116 156 -116 146 0 -4 -10 2 -22 13 -13 11 -33 24 -45 28 -13 3 -23 11 -23
16 0 6 -4 8 -9 5 -5 -3 -25 1 -44 9 -44 18 -207 55 -244 55 -23 0 -25 2 -13
11 12 8 11 9 -6 4 -11 -3 -54 -1 -95 5 -41 6 -121 13 -179 15 -249 11 -503 27
-610 40 -63 7 -116 10 -118 6 -4 -12 -106 5 -137 23 l-30 17 28 -6 c33 -7 33
11 0 38 -30 24 -52 72 -46 98 4 14 2 20 -4 16 -14 -9 -24 16 -13 32 4 8 16 11
29 6 12 -3 19 -11 16 -16 -4 -5 -1 -9 4 -9 6 0 11 3 11 8 0 13 91 11 113 -3
12 -7 45 -16 72 -20 28 -4 61 -10 75 -15 32 -12 160 -27 380 -45 96 -8 231
-19 300 -25 69 -6 255 -15 413 -19 l288 -7 60 -60 c73 -72 151 -169 142 -178
-3 -3 -2 -6 4 -6 14 0 50 -84 68 -162 11 -45 15 -123 15 -280 0 -119 5 -252
12 -295 7 -43 12 -94 13 -115 0 -20 3 -34 8 -31 4 2 7 -5 7 -17 0 -12 -4 -19
-9 -16 -13 8 -8 -19 7 -36 6 -8 8 -19 4 -23 -4 -5 1 -5 10 -2 10 3 20 1 24 -5
4 -7 3 -8 -4 -4 -7 4 -12 3 -12 -3 0 -6 -7 -8 -15 -5 -8 4 -15 14 -15 24 0 10
-9 20 -19 23 -15 4 -20 -2 -25 -29 -4 -18 -12 -36 -18 -40 -7 -5 -8 -2 -3 6 5
9 4 11 -3 6 -8 -5 -9 -13 -3 -24 10 -19 -3 -35 -34 -40 -28 -5 -32 -12 -15
-25 21 -16 14 -45 -12 -49 -19 -3 -22 -9 -21 -57 1 -35 -4 -63 -14 -75 -14
-21 -15 -20 -8 4 5 21 4 22 -5 7 -13 -20 -5 -38 14 -31 8 3 17 1 21 -5 4 -7
71 -11 194 -11 l187 0 -1 53 c0 53 -14 85 -27 64 -4 -7 -6 -2 -6 9 2 21 3 21
35 -5 18 -14 33 -30 33 -34 0 -5 4 -6 9 -3 5 3 25 -1 45 -9 44 -19 46 -19 46
1 0 16 -130 149 -175 178 -15 10 -23 22 -19 28 5 8 10 5 15 -8 5 -12 8 -14 8
-4 0 16 -22 50 -33 50 -4 0 -4 -6 0 -12 5 -10 4 -10 -6 -1 -8 7 -15 21 -16 30
-1 10 -5 27 -9 37 -7 15 -5 17 6 11 12 -7 4 5 -30 45 -2 3 -1 -3 2 -12 4 -10
2 -18 -2 -18 -13 0 -22 28 -11 35 6 4 10 12 10 18 0 9 -3 8 -8 -1 -6 -9 -11
-6 -19 10 -20 40 -25 106 -29 361 -3 258 -13 329 -61 435 -9 20 -17 40 -17 44
-1 4 -9 16 -18 27 -31 37 -48 68 -41 75 5 4 3 6 -3 4 -5 -1 -46 30 -90 70
l-79 73 189 -3 190 -3 18 -31 c25 -43 76 -191 93 -271 8 -37 22 -140 31 -228
15 -160 51 -356 76 -411 7 -16 25 -49 40 -73 l28 -45 0 75 c0 54 -8 99 -30
169 -17 52 -37 151 -45 220 -34 268 -59 370 -128 510 l-42 85 123 -1 122 -1 0
69 0 68 -26 -6 c-25 -6 -322 -8 -699 -4 -99 1 -281 1 -405 1 -124 -1 -272 3
-330 9 -58 5 -166 11 -240 14 -123 5 -213 13 -403 34 -38 5 -74 15 -83 24 -19
19 -33 122 -40 297 -2 73 -7 137 -9 142 -11 17 0 1337 11 1348 3 3 58 15 122
26 110 20 117 22 126 48 8 21 6 31 -9 47 -19 21 -118 91 -144 101 -8 3 7 12
35 22 188 63 186 63 190 94 4 24 -33 62 -76 80 -31 14 -33 16 -15 26 45 24 46
57 3 106 -46 53 -120 100 -180 113 -29 7 -56 17 -60 22 -10 15 -1 988 12 1246
6 118 13 264 15 325 3 60 8 132 10 160 3 27 9 128 15 223 5 96 12 178 15 182
7 11 25 294 33 505 l7 169 40 23 c22 12 69 32 105 44 36 12 74 27 85 34 11 6
32 15 47 18 56 14 75 60 38 97 -16 16 -33 20 -80 20 -33 0 -60 4 -60 8 0 14
147 83 188 88 79 11 82 13 82 44 0 25 -5 31 -37 39 -93 25 -148 32 -193 27
-63 -8 -59 3 26 69 86 67 94 74 94 88 -1 31 -20 41 -82 43 -66 2 -215 -17
-236 -30 -9 -5 -12 23 -11 126 1 73 4 162 8 198 l6 64 60 42 c33 24 97 60 142
81 89 41 102 60 59 88 -17 12 -53 17 -126 18 -94 2 -100 3 -81 18 39 31 220
129 250 135 18 4 37 16 43 27 9 17 6 23 -13 38 -13 10 -33 19 -44 19 -11 1
-35 3 -53 6 -19 2 -61 -2 -93 -10 l-60 -14 23 26 c35 37 133 99 189 117 35 12
49 22 49 35 0 22 -11 26 -81 35 -49 6 -139 -4 -180 -20 -14 -5 -16 22 -17 247
-2 224 8 429 24 480 3 10 15 20 27 23 51 12 276 37 452 50 105 8 226 19 270
25 44 6 127 12 185 15 58 3 150 9 205 15 55 6 141 15 190 20 85 9 285 22 528
36 93 5 108 8 105 22 -3 14 -19 17 -103 18 -55 1 -167 -2 -250 -7z m-1572
-1028 c-26 -21 -57 -49 -69 -62 -29 -33 -69 -107 -61 -115 5 -5 67 3 172 22
22 4 9 -7 -48 -41 -42 -26 -99 -68 -125 -93 -26 -26 -53 -45 -60 -44 -21 5
-58 -24 -83 -64 -36 -59 -35 -21 2 74 26 65 49 101 97 155 65 72 72 87 47 87
-35 0 -118 -94 -156 -176 -50 -105 -70 -199 -76 -358 -7 -170 14 -262 79 -345
17 -23 17 -25 2 -43 -24 -26 -31 -23 -39 20 -4 20 -22 70 -41 110 -91 192 -86
466 12 653 59 112 155 184 324 242 70 25 76 20 23 -22z m-3 -384 l35 -2 -66
-37 c-161 -91 -249 -251 -237 -430 3 -37 4 -68 2 -68 -8 0 -38 69 -50 115 -16
59 -18 158 -4 183 5 9 19 45 30 80 11 35 36 87 55 115 l34 52 83 -3 c46 -1 99
-3 118 -5z m3 -633 c-12 -9 -32 -25 -45 -36 -13 -11 -44 -38 -70 -61 -59 -50
-63 -78 -16 -107 21 -12 41 -17 53 -13 22 7 75 13 75 8 0 -7 -69 -42 -135 -70
-76 -31 -152 -80 -229 -147 l-49 -42 23 44 c27 53 125 183 169 224 28 27 43
76 22 76 -42 0 -177 -151 -226 -255 -36 -75 -95 -262 -95 -301 0 -17 -6 -24
-20 -24 -16 0 -20 7 -20 38 1 96 21 177 60 243 22 37 44 79 50 94 33 86 176
265 201 249 5 -3 8 0 7 8 -6 28 153 86 237 87 30 0 30 0 8 -15z m-141 -349 c3
3 17 -1 32 -9 l27 -14 -26 -20 c-14 -11 -39 -24 -55 -27 -35 -8 -199 -192
-226 -255 -20 -45 -32 -52 -74 -44 -29 6 -29 8 -23 53 10 70 26 101 90 162 69
68 191 151 206 142 5 -3 7 -1 3 5 -8 13 15 22 30 11 6 -5 13 -7 16 -4z m-93
-375 c-6 -113 -18 -274 -50 -655 -6 -71 -12 -157 -15 -190 -2 -33 -6 -82 -9
-110 -3 -27 -10 -129 -15 -225 -6 -96 -13 -215 -16 -265 -3 -49 -9 -248 -12
-441 l-7 -352 -55 27 c-30 14 -62 31 -70 36 -20 13 -107 43 -144 50 -45 9 -47
12 -41 78 4 34 10 108 16 165 5 56 13 148 19 205 5 56 14 127 20 157 14 64 16
80 29 179 8 66 7 76 -9 93 -15 16 -26 19 -53 14 -31 -6 -36 -12 -51 -59 -13
-44 -29 -141 -40 -258 -2 -14 -6 -30 -9 -36 -6 -9 -8 -39 -8 -93 1 -53 -8
-168 -14 -185 -13 -38 -14 -44 -6 -49 4 -3 5 -27 1 -53 -4 -26 -6 -51 -3 -55
2 -5 -1 -16 -6 -25 -9 -16 -11 -16 -12 5 -1 12 -2 25 -3 30 -16 72 -29 122
-37 142 -5 14 -11 42 -13 62 -2 20 -7 45 -10 55 -14 45 -32 182 -35 263 -2 66
-10 81 -44 84 -49 6 -63 -21 -71 -130 -3 -55 -13 -133 -21 -174 -9 -41 -20
-100 -24 -130 -5 -30 -11 -62 -14 -70 -3 -8 -8 -44 -12 -80 -16 -176 -30 -190
-40 -37 -11 183 -54 425 -109 607 -22 74 -73 66 -55 -9 26 -106 67 -365 72
-452 3 -48 1 -56 -12 -52 -24 9 -109 93 -144 143 -17 25 -39 53 -47 63 -9 9
-23 30 -31 45 -7 15 -32 50 -55 77 -22 28 -44 58 -47 68 -4 9 -26 48 -50 85
-149 228 -238 529 -207 700 16 86 75 196 147 272 64 68 91 80 194 82 84 2 100
-4 174 -69 27 -23 55 -43 61 -43 6 0 36 46 65 102 33 63 73 121 104 153 62 63
193 129 284 144 35 6 71 17 81 26 28 25 235 16 349 -15 19 -5 38 -7 43 -4 13
8 10 40 -6 53 -11 9 -10 20 6 68 10 32 30 70 45 85 15 15 27 27 28 25 0 -1 -2
-58 -6 -127z m-672 -67 c2 -6 -29 -29 -69 -51 -98 -55 -145 -104 -208 -220
-30 -53 -55 -99 -56 -101 -2 -2 -22 13 -45 33 -24 20 -47 36 -51 36 -5 0 -7 4
-4 9 3 5 -6 9 -19 9 -14 0 -35 10 -46 23 l-21 24 21 3 c12 2 19 7 16 12 -5 8
4 8 65 -6 14 -3 34 -6 45 -8 11 -2 36 -6 55 -10 l35 -6 34 74 c36 79 60 108
137 161 49 34 103 43 111 18z m-570 -199 c14 -4 20 -11 16 -18 -4 -6 1 -5 10
2 9 8 22 10 28 6 9 -5 7 -11 -6 -21 -11 -7 -13 -13 -7 -13 7 0 12 -5 12 -11 0
-5 -5 -7 -12 -3 -21 13 -80 5 -160 -22 -79 -27 -81 -29 -170 -131 -15 -17 -34
-46 -44 -65 -9 -18 -28 -46 -41 -62 -26 -31 -42 -65 -49 -105 -3 -13 -18 -64
-34 -115 -46 -146 -54 -200 -52 -360 2 -157 12 -219 61 -366 61 -185 74 -225
88 -279 8 -31 16 -60 17 -66 1 -5 6 -16 10 -24 7 -11 5 -13 -10 -8 -18 7 -18
7 0 -8 17 -13 17 -15 4 -15 -13 0 -16 -8 -12 -35 2 -19 6 -51 8 -70 3 -19 1
-37 -4 -40 -11 -7 -2 -35 11 -35 4 0 6 8 3 18 -5 13 -4 14 4 3 6 -8 8 -20 5
-28 -3 -7 0 -13 6 -13 6 0 11 -5 11 -11 0 -6 -7 -9 -15 -5 -19 7 -19 1 1 -18
16 -16 66 -175 58 -187 -2 -4 3 -20 11 -35 17 -34 19 -48 5 -39 -10 6 -9 2 11
-50 6 -16 13 -55 16 -85 4 -50 14 -117 30 -192 3 -16 10 -28 15 -28 6 0 7 -11
4 -24 -6 -26 24 -157 50 -211 10 -22 13 -45 9 -65 -4 -20 -3 -30 5 -30 8 0 9
-7 5 -17 -4 -10 -12 -37 -17 -60 -5 -23 -20 -58 -34 -78 -13 -20 -24 -40 -24
-46 0 -5 -7 -12 -15 -15 -10 -4 -13 -13 -10 -25 4 -12 1 -21 -8 -25 -8 -3 -13
-13 -10 -23 2 -10 -3 -25 -12 -34 -11 -11 -14 -24 -10 -38 5 -15 4 -19 -4 -15
-6 4 -11 1 -11 -8 0 -8 -5 -16 -10 -18 -6 -2 -13 -23 -16 -48 -3 -25 -12 -51
-21 -57 -11 -9 -12 -13 -4 -13 19 0 8 -33 -12 -36 -13 -2 -17 2 -13 13 7 17
21 114 31 203 3 30 9 78 14 105 11 57 11 58 11 305 0 302 -11 439 -49 605 -11
44 -27 121 -36 170 -10 50 -24 122 -31 160 -15 76 -30 154 -43 225 -17 90 -52
245 -78 349 -24 98 -26 120 -25 291 4 382 8 434 38 528 51 156 210 380 324
456 25 16 130 22 177 10z m-270 -1079 c27 -56 56 -125 63 -155 6 -30 23 -93
37 -139 14 -47 26 -90 27 -97 1 -8 5 -17 9 -20 4 -4 2 -13 -5 -21 -13 -16 -19
-73 -7 -73 5 0 6 -6 3 -14 -3 -7 2 -16 10 -19 17 -7 22 -52 6 -62 -10 -6 -50
29 -50 45 0 6 5 10 12 10 6 0 8 3 5 6 -4 4 -13 1 -21 -5 -17 -14 -31 1 -22 24
3 10 0 12 -12 8 -15 -6 -15 -5 -3 10 12 15 12 17 0 12 -19 -7 -58 93 -94 236
-14 57 -30 120 -35 139 -19 72 -40 243 -40 327 l1 88 33 -100 c18 -55 55 -145
83 -200z m241 -385 c87 -130 193 -247 256 -284 40 -23 44 -29 49 -78 11 -85 9
-108 -8 -108 -9 0 -20 11 -27 25 -6 13 -15 22 -19 19 -5 -3 -9 2 -9 11 0 10
-5 13 -12 9 -6 -4 -8 -3 -5 3 4 6 -2 22 -13 36 -11 14 -20 33 -20 42 0 9 -4
13 -10 10 -5 -3 -10 0 -10 7 0 7 -10 24 -23 38 -12 14 -28 36 -35 50 -7 14
-11 18 -8 9 2 -9 -2 -16 -10 -16 -7 0 -11 4 -8 9 3 5 3 21 0 34 -5 18 -11 24
-23 20 -13 -5 -14 -4 -3 9 11 13 10 14 -4 9 -11 -4 -16 -1 -16 10 0 9 -7 19
-15 22 -8 4 -12 10 -9 15 3 5 0 9 -7 9 -7 0 -9 3 -6 7 9 9 -13 34 -24 27 -5
-3 -9 1 -9 10 0 8 -3 16 -7 18 -11 5 -39 64 -62 133 -20 59 -20 60 -1 35 11
-14 55 -77 98 -140z m572 -389 c59 -19 58 -18 78 -133 7 -37 6 -45 -5 -41 -7
3 -10 10 -7 15 4 6 -2 5 -14 -1 -19 -10 -20 -9 -16 15 4 21 2 25 -11 20 -9 -3
-13 -2 -10 4 3 6 3 15 -1 21 -4 8 -9 7 -15 -2 -5 -8 -9 -9 -9 -3 0 7 -15 10
-37 9 -24 -1 -37 -7 -35 -14 1 -7 -2 -10 -7 -7 -5 3 -7 18 -4 34 2 15 7 44 10
65 6 42 8 43 83 18z m308 -107 c20 -9 48 -18 61 -20 13 -3 32 -11 42 -18 18
-12 16 -16 -29 -54 -36 -30 -49 -36 -49 -24 0 9 5 21 11 25 7 6 4 7 -7 3 -10
-3 -36 -3 -58 0 l-39 7 0 48 c0 56 7 59 68 33z m272 -143 c0 -35 -5 -42 -50
-75 -27 -20 -50 -40 -50 -45 0 -5 -8 -12 -17 -15 -10 -4 -29 -22 -42 -43 -21
-33 -23 -46 -22 -165 0 -92 5 -136 15 -157 29 -55 134 -99 281 -117 60 -7 60
-7 25 -17 -19 -5 -55 -11 -80 -14 -51 -6 -80 -26 -80 -57 0 -33 22 -52 70 -61
39 -7 196 -74 188 -80 -2 -1 -17 -5 -35 -8 -24 -5 -31 -3 -27 7 8 21 -16 32
-111 51 -109 21 -136 34 -198 94 -81 77 -107 154 -109 318 -1 76 3 100 31 176
42 113 83 174 145 215 26 17 52 32 57 32 5 0 9 -18 9 -39z m-194 -88 c-13 -27
-29 -67 -36 -90 -7 -24 -16 -43 -20 -43 -12 0 -30 -85 -30 -142 0 -97 28 -248
54 -293 33 -55 100 -122 150 -148 23 -11 84 -31 136 -44 52 -12 81 -22 65 -21
-17 1 -36 -1 -43 -6 -40 -24 -252 -1 -252 28 0 5 -3 7 -6 3 -4 -3 -15 4 -26
16 -11 12 -16 15 -12 7 7 -12 4 -12 -16 2 -14 9 -24 21 -22 27 1 6 -3 10 -10
9 -7 -2 -12 2 -13 9 0 7 -8 21 -17 33 -28 32 -33 74 -32 251 l1 167 63 128
c34 71 67 135 72 142 20 24 18 11 -6 -35z m230 -278 c106 -1 125 -5 162 -25
23 -13 42 -28 42 -32 0 -10 -68 -3 -118 11 -18 6 -40 7 -48 4 -18 -6 -34 -64
-22 -79 4 -6 51 -31 103 -55 101 -47 123 -65 52 -44 -24 7 -82 18 -129 23 -96
12 -189 49 -211 84 -13 18 -22 99 -18 141 1 4 16 0 33 -9 25 -13 63 -18 154
-19z m-34 -872 c3 -156 -2 -425 -9 -436 -3 -5 -2 -8 3 -5 5 4 10 -59 11 -147
1 -84 9 -212 17 -284 14 -118 22 -252 30 -493 2 -83 1 -88 -18 -89 -12 0 -32
-2 -46 -4 -22 -3 -29 3 -52 53 -29 60 -67 170 -73 212 -2 14 -6 33 -10 43 -4
10 -3 17 4 17 6 0 11 11 11 25 0 14 -5 25 -10 25 -14 0 -2 124 17 175 8 23 12
52 8 72 -5 26 -3 33 10 33 18 0 21 30 3 31 -10 0 -10 2 0 6 7 2 12 22 12 44 0
21 4 39 10 39 5 0 7 7 4 15 -3 8 6 26 20 40 14 14 26 34 26 45 0 10 5 22 10
25 6 4 8 21 5 38 -3 18 -7 70 -10 117 -2 47 -8 123 -14 169 -7 56 -7 90 0 102
5 11 8 19 5 19 -3 0 2 16 10 35 8 20 12 40 9 46 -6 9 4 119 11 119 2 0 5 -39
6 -87z m-537 -384 c32 -6 34 -34 28 -279 -3 -158 -9 -250 -17 -259 -8 -11 -8
-13 0 -8 7 4 14 -5 18 -24 10 -50 7 -91 -5 -83 -6 3 -4 -8 5 -24 9 -17 19 -48
22 -69 3 -21 8 -41 10 -44 2 -4 6 -24 10 -45 3 -20 10 -48 15 -62 5 -13 7 -28
3 -33 -3 -5 0 -9 5 -9 6 0 11 -8 11 -17 0 -10 9 -33 20 -51 23 -38 25 -46 8
-37 -7 4 -4 -1 6 -9 18 -15 18 -16 2 -16 -9 0 -15 -4 -11 -10 3 -5 12 -7 20
-3 17 6 19 -20 4 -52 -7 -15 -8 -11 -4 15 l6 35 -24 -28 -24 -28 -31 18 c-18
10 -32 21 -32 26 0 4 -6 7 -13 7 -16 0 -52 -65 -50 -91 1 -11 -4 -33 -11 -50
l-13 -31 -6 35 c-3 19 -22 73 -43 119 -32 72 -38 95 -42 178 -2 52 3 185 12
295 9 110 19 236 21 280 3 44 7 94 9 110 3 17 10 86 16 155 6 69 14 136 16
150 6 24 7 23 27 -17 12 -23 27 -43 32 -44z m-939 -85 c4 -14 3 -67 -1 -117
-11 -124 -12 -134 -28 -197 -7 -31 -12 -61 -9 -68 2 -7 -2 -12 -8 -12 -7 0 -9
-8 -5 -20 3 -11 3 -25 -2 -32 -4 -7 -8 -52 -9 -99 0 -47 -4 -91 -8 -97 -4 -7
-4 -17 -1 -23 4 -5 9 -20 11 -32 2 -12 6 -35 9 -52 4 -25 4 -27 -5 -10 -9 17
-9 16 -5 -9 6 -28 55 -86 73 -86 5 0 14 -10 21 -22 11 -22 11 -22 8 4 -2 15
-1 25 4 23 4 -3 9 3 12 12 2 10 4 -9 5 -42 1 -33 6 -100 12 -150 7 -49 11
-100 11 -112 0 -12 6 -40 14 -62 24 -68 10 -164 -33 -235 -43 -72 -53 -145
-28 -194 17 -33 85 -70 166 -92 25 -7 50 -15 55 -18 12 -8 17 -9 48 -11 17 -1
19 -3 8 -10 -11 -7 -10 -10 5 -14 15 -4 14 -5 -6 -6 l-25 -2 25 -14 25 -15
-27 6 c-19 4 -32 0 -47 -15 -12 -12 -21 -24 -21 -28 0 -4 5 -2 12 5 16 16 28
15 28 -3 0 -8 -7 -15 -15 -15 -22 0 -18 -15 8 -34 22 -16 22 -16 -5 -4 -16 6
-28 15 -28 20 0 4 -5 8 -11 8 -5 0 -7 -5 -3 -12 8 -13 -12 -3 -39 21 -14 11
-20 12 -26 3 -5 -9 -12 -8 -27 6 -10 9 -29 16 -42 14 -13 -2 -43 3 -68 12 -24
8 -44 11 -44 6 0 -6 -10 -6 -25 0 -14 5 -32 7 -42 3 -10 -4 -14 -2 -10 4 4 6
-16 15 -53 22 -33 7 -62 16 -65 21 -4 6 -14 10 -23 9 -14 0 -13 -2 3 -9 14 -6
15 -9 5 -9 -9 -1 -33 8 -55 19 -49 25 -53 25 -24 0 l24 -20 -30 15 c-16 8 -35
15 -42 15 -16 0 -36 38 -29 56 5 12 2 12 -17 3 l-22 -12 20 24 c24 28 43 66
47 94 2 11 11 26 21 33 9 7 15 18 12 23 -4 5 0 9 7 9 7 0 18 9 23 19 6 11 25
45 44 76 30 50 33 64 33 128 0 40 -7 104 -16 142 -31 144 -25 424 13 590 5 22
16 76 25 120 15 78 61 252 91 346 8 26 15 54 15 64 0 10 5 15 14 12 9 -4 12 2
10 19 -1 13 1 22 5 20 4 -3 13 -1 21 5 23 14 29 11 36 -17z m1072 -176 c7 -7
12 -22 12 -33 0 -12 11 -31 25 -43 13 -12 27 -34 30 -49 4 -15 11 -37 17 -48
8 -14 8 -20 -1 -23 -9 -3 -7 -9 4 -22 18 -19 13 -60 -7 -60 -6 0 0 -8 13 -19
l23 -18 -22 -12 c-26 -14 -28 -28 -5 -33 16 -3 16 -4 0 -20 -9 -9 -17 -25 -18
-35 0 -10 -3 -13 -6 -5 -7 17 -33 15 -33 -3 0 -8 7 -15 15 -15 8 0 15 -5 15
-11 0 -6 -7 -9 -15 -5 -12 4 -15 -3 -14 -32 0 -29 2 -33 8 -17 11 27 20 -82
10 -110 l-8 -20 -1 20 c-1 11 -1 31 0 44 1 13 -3 21 -8 17 -10 -6 -11 1 -13
73 -1 19 -7 40 -14 47 -12 12 -15 58 -19 237 -1 26 -4 47 -7 47 -3 0 -6 26 -7
58 0 31 -1 62 -2 67 -7 33 7 44 28 23z m-160 -1053 c-3 -27 -1 -46 5 -48 6 -2
11 -23 10 -48 -1 -24 5 -55 12 -69 23 -46 33 -88 23 -98 -5 -5 -4 -9 4 -10 23
-1 61 -11 67 -18 5 -5 -46 -1 -99 9 -31 6 -60 28 -66 51 -3 13 2 66 11 117 9
52 18 109 21 127 7 49 17 38 12 -13z m462 -243 c0 -4 100 -6 223 -5 122 0 285
-3 362 -8 150 -10 442 -44 513 -60 50 -11 94 -37 86 -50 -3 -5 0 -8 8 -7 29 7
49 -67 58 -219 5 -81 16 -218 25 -303 15 -143 16 -206 4 -498 -1 -36 -5 -45
-26 -53 -14 -5 -28 -7 -31 -4 -3 3 0 5 6 5 7 0 12 5 12 11 0 5 -4 7 -10 4 -5
-3 -10 -1 -10 5 0 7 9 9 23 5 20 -6 21 -5 5 8 -10 8 -18 22 -18 31 0 9 -4 16
-10 16 -5 0 -7 7 -4 15 5 11 2 13 -10 9 -9 -3 -17 -2 -17 2 -6 37 -8 55 -13
97 -3 26 -8 52 -12 58 -3 5 -8 33 -11 62 -3 29 -10 54 -14 55 -5 2 -7 7 -4 11
2 5 0 22 -5 40 -5 19 -5 31 1 31 5 0 0 14 -13 30 -27 37 -40 38 -58 5 -18 -33
-27 -32 -67 10 -19 19 -29 35 -23 35 5 0 10 7 10 15 0 8 -4 15 -9 15 -12 0
-23 48 -16 71 4 11 11 16 17 13 7 -4 8 4 3 25 -4 20 -2 37 6 47 9 11 9 18 1
26 -7 7 -12 39 -12 72 0 74 28 129 63 125 12 -1 30 1 40 5 9 3 24 8 32 11 18
5 20 51 3 62 -7 4 -38 10 -68 13 -40 4 -54 9 -52 19 2 8 -3 18 -10 23 -10 6
-10 10 2 19 12 9 11 9 -5 4 -11 -4 -30 -10 -43 -12 -32 -8 -38 -23 -8 -23 14
0 26 -4 26 -9 0 -15 -152 -18 -175 -4 -11 6 -38 14 -60 18 -22 4 -49 9 -59 12
-15 4 -18 1 -13 -11 6 -14 3 -16 -16 -11 -17 6 -19 4 -11 -5 9 -9 9 -19 0 -42
-8 -24 -8 -32 2 -35 6 -3 12 -17 11 -31 l-1 -27 -8 25 c-7 23 -8 23 -9 3 -1
-12 -5 -24 -10 -27 -5 -3 -11 -15 -14 -27 -5 -20 -4 -20 12 -4 17 14 19 14 25
0 4 -11 2 -14 -6 -9 -7 5 -9 2 -5 -9 4 -11 2 -14 -9 -10 -12 4 -13 1 -4 -22 6
-15 8 -36 5 -45 -3 -11 5 -30 21 -49 20 -24 25 -39 21 -60 -3 -15 -2 -32 3
-37 6 -6 5 -37 0 -77 -6 -38 -8 -72 -6 -76 3 -4 -4 -15 -15 -25 -14 -11 -18
-23 -13 -34 11 -25 8 -66 -5 -70 -6 -2 -11 -13 -11 -23 0 -11 5 -17 10 -14 6
3 10 2 10 -4 0 -5 -4 -12 -9 -15 -5 -3 -8 -14 -6 -24 12 -60 14 -96 4 -82 -8
11 -9 6 -5 -20 3 -22 2 -29 -3 -20 -5 8 -11 62 -15 120 -3 58 -8 130 -10 160
-20 244 -14 468 14 478 10 4 4 61 -12 99 -6 15 -10 33 -9 38 2 6 0 7 -4 3 -4
-3 -25 2 -48 12 -53 23 -162 39 -302 44 -308 10 -485 20 -485 28 0 4 -10 8
-22 9 l-23 1 22 6 c17 6 42 31 69 70 1 2 17 -4 34 -13 22 -11 35 -13 39 -6 4
6 15 -2 26 -19 14 -21 29 -29 60 -33 49 -5 80 7 45 18 -16 5 -19 10 -10 15 9
5 9 9 1 14 -6 4 -11 2 -11 -4 0 -6 -4 -8 -10 -5 -6 4 -7 -1 -3 -12 5 -16 4
-16 -14 2 l-20 20 26 6 c14 4 20 7 14 8 -7 0 -13 6 -13 12 0 6 14 1 30 -11 17
-12 30 -24 30 -28z"/>
<path d="M4817 6513 c-2 -5 -5 -60 -6 -123 -2 -123 -5 -158 -27 -289 -23 -136
-28 -124 101 -252 64 -63 123 -126 131 -141 14 -27 52 -45 76 -35 7 2 18 4 23
4 13 -1 22 43 24 109 0 28 10 113 22 188 l20 136 -21 28 c-28 37 -152 162
-160 162 -4 0 -44 50 -90 110 -45 61 -84 110 -86 110 -1 0 -5 -3 -7 -7z m210
-334 c40 -38 75 -80 78 -92 4 -13 0 -61 -9 -108 -8 -46 -15 -106 -15 -133 0
-27 -4 -53 -9 -58 -13 -13 -85 25 -105 54 -9 13 -30 39 -46 58 -17 19 -35 40
-41 47 -12 14 -13 91 -3 250 l6 112 36 -31 c20 -17 69 -62 108 -99z"/>
<path d="M4950 6070 c-21 -13 -51 -112 -38 -127 11 -13 66 -43 79 -43 5 0 24
14 44 31 27 24 35 39 35 64 0 61 -71 106 -120 75z"/>
<path d="M4241 6186 c-6 -7 -13 -65 -16 -128 -3 -85 -12 -147 -35 -233 l-30
-117 27 -22 c16 -11 64 -54 108 -94 111 -102 120 -106 130 -50 5 25 66 151 95
194 l20 31 -40 59 c-22 32 -55 77 -75 99 -19 22 -35 43 -35 47 0 4 -17 34 -37
66 -21 32 -49 81 -62 110 -26 55 -32 60 -50 38z m170 -387 l39 -47 -16 -43
c-9 -24 -21 -63 -28 -87 l-11 -42 -40 39 c-22 22 -44 41 -50 41 -18 1 -55 38
-55 54 0 8 8 37 19 63 10 26 22 81 26 121 l7 74 35 -64 c20 -34 53 -84 74
-109z"/>
<path d="M4300 5790 c-21 -21 -24 -31 -20 -65 6 -66 113 -69 140 -5 27 65 -69
121 -120 70z"/>
<path d="M3013 8913 c-16 -6 -17 -43 -2 -43 21 0 69 -169 69 -247 0 -51 27
-43 35 10 18 123 7 190 -42 255 -23 31 -35 36 -60 25z"/>
<path d="M2417 8663 c-3 -5 -10 -42 -16 -83 -14 -91 -46 -214 -96 -375 -49
-155 -85 -309 -85 -363 0 -93 52 -152 133 -152 25 0 74 7 109 15 35 8 103 19
153 25 81 10 111 19 183 53 46 22 15 49 -69 62 -26 4 -74 0 -119 -9 -41 -8
-93 -17 -115 -20 -22 -3 -56 -10 -75 -15 -19 -6 -51 -11 -72 -11 -29 0 -38 5
-44 23 -11 33 -8 100 12 217 4 25 34 132 40 141 3 5 13 9 22 9 20 0 122 32
177 55 112 48 246 164 304 263 42 72 18 69 -67 -9 -107 -98 -215 -175 -317
-225 -52 -26 -97 -46 -99 -43 -2 2 7 47 20 99 33 134 58 293 50 324 -6 25 -20
34 -29 19z"/>
<path d="M407 8653 c-48 -3 -58 -7 -55 -21 3 -14 14 -17 68 -14 147 7 644 -48
669 -74 9 -9 -123 -129 -212 -194 -42 -30 -76 -61 -76 -67 -1 -19 7 -17 80 20
157 79 315 239 279 283 -14 15 -27 18 -200 44 -133 19 -433 32 -553 23z"/>
<path d="M3417 8653 c-16 -3 -26 -10 -24 -16 2 -8 37 -13 100 -15 70 -2 95 -6
92 -15 -6 -17 -32 -268 -45 -427 -6 -74 -15 -171 -20 -215 -6 -44 -12 -96 -13
-115 -3 -35 -3 -35 -63 -42 -32 -3 -97 -8 -144 -11 -63 -4 -85 -8 -85 -18 0
-11 31 -14 150 -15 83 0 158 -4 169 -9 11 -5 21 -3 26 5 7 11 167 10 460 -4
14 0 26 3 28 9 5 18 -160 45 -315 51 -147 7 -151 7 -147 28 9 46 14 96 20 196
3 58 7 128 9 155 9 100 19 331 18 377 l-2 47 130 -2 c146 -2 171 11 57 30 -69
11 -340 15 -401 6z"/>
<path d="M2057 8604 c-15 -15 -107 -25 -330 -34 -131 -5 -243 -13 -249 -16 -7
-5 -5 -11 6 -20 17 -12 211 -12 459 0 l88 5 -33 -42 c-41 -53 -129 -157 -188
-222 -25 -28 -70 -79 -100 -114 -63 -74 -90 -101 -102 -101 -4 0 -36 23 -70
50 -100 80 -138 104 -148 94 -7 -7 31 -51 103 -125 61 -63 128 -137 147 -163
44 -61 105 -106 142 -106 49 0 35 35 -48 121 -74 76 -76 79 -61 101 15 22 127
155 211 249 66 74 150 179 195 243 31 46 38 62 30 73 -12 14 -41 18 -52 7z"/>
<path d="M570 8478 c-1 -2 -3 -37 -6 -78 -15 -237 -53 -400 -116 -495 -16 -24
-62 -72 -101 -106 -40 -35 -72 -67 -72 -73 0 -6 15 -12 33 -14 90 -9 216 118
253 256 5 17 14 49 20 70 24 83 37 192 34 293 -4 120 -10 149 -31 149 -8 0
-14 -1 -14 -2z"/>
</g>
</svg>
