<?xml version="1.0" standalone="no"?>
<!DOCTYPE svg PUBLIC "-//W3C//DTD SVG 20010904//EN"
 "http://www.w3.org/TR/2001/REC-SVG-20010904/DTD/svg10.dtd">
<svg version="1.0" xmlns="http://www.w3.org/2000/svg"
 width="189.000000pt" height="198.000000pt" viewBox="0 0 189.000000 198.000000"
 preserveAspectRatio="xMidYMid meet">
<metadata>
Created by potrace 1.16, written by Peter Selinger 2001-2019
</metadata>
<g transform="translate(0.000000,198.000000) scale(0.100000,-0.100000)"
fill="#000000" stroke="none">
<path d="M202 1640 c-2 -8 -3 -60 -3 -115 0 -80 -3 -103 -17 -119 -15 -18 -15
-19 0 -8 15 12 17 8 17 -45 0 -32 -6 -64 -12 -72 -9 -12 -9 -13 1 -7 8 5 12
-1 12 -19 0 -18 -4 -24 -12 -19 -10 6 -10 4 -2 -7 18 -25 17 -79 -3 -102 -14
-16 -14 -19 -1 -9 15 12 16 2 16 -115 0 -80 -5 -133 -12 -142 -8 -11 -8 -13 2
-7 8 5 12 -2 12 -23 0 -18 -5 -31 -12 -31 -9 0 -9 -3 0 -12 16 -16 15 -68 0
-68 -10 0 -10 -2 -1 -8 8 -5 11 -49 11 -137 0 -106 -3 -134 -17 -150 -15 -18
-15 -19 1 -6 16 12 17 8 15 -53 -1 -36 0 -66 3 -66 3 0 16 -3 30 -5 21 -5 22
-4 5 3 -20 9 -20 21 -25 683 -3 371 -7 667 -8 659z"/>
</g>
</svg>
